<svg id="SvgjsSvg1015" width="100%" height="100%" xmlns="http://www.w3.org/2000/svg" version="1.1" xlink="http://www.w3.org/1999/xlink" xmlns:svgjs="http://svgjs.com/svgjs" preserveAspectRatio="xMidYMid meet" viewBox="0 9.182613069924628e-8 150.45091247558594 146.99998474121094" overflow="visible"><defs id="SvgjsDefs1016"></defs><g id="SvgjsG1017" transform="scale(1.1204268292682928)" opacity="1"><g id="SvgjsG1018" class="sAmnzkrkY" transform="translate(31.332, -2.238) scale(0.71616)" light-content="false" non-strokable="false" fill="#147b38"><path d="M28.125 3.125c-13.809 0-25 11.191-25 25v43.75c0 13.809 11.191 25 25 25h43.75c13.809 0 25-11.191 25-25v-43.75c0-13.809-11.191-25-25-25zM43.75 50c0 .887-.375 1.73-1.035 2.324L27.09 66.386a3.126 3.126 0 0 1-4.18-4.648L35.953 50 22.91 38.262a3.126 3.126 0 0 1 4.18-4.649l15.625 14.062A3.123 3.123 0 0 1 43.75 50zM75 67.188a3.124 3.124 0 1 0 0-6.25H50a3.124 3.124 0 1 0 0 6.25z" fill-rule="evenodd"></path></g><g id="SvgjsG1019" class="text" transform="translate(68.0999984741211, 130.48000015258788) scale(1)" light-content="false" fill="#292929"><path d="M-63.66 -18.9L-63.66 0L-55.26 0L-55.26 -18.9L-47.34 -18.9L-47.34 -26.34L-55.26 -26.34L-55.26 -35.22C-55.26 -36.9 -54.89 -38.16 -54.15 -39C-53.41 -39.84 -52.42 -40.26 -51.18 -40.26C-49.94 -40.26 -48.96 -39.82 -48.24 -38.94L-44.7 -45C-45.7 -45.72 -46.88 -46.26 -48.24 -46.62C-49.6 -46.98 -50.88 -47.16 -52.08 -47.16C-55.76 -47.16 -58.61 -46.09 -60.63 -43.95C-62.65 -41.81 -63.66 -38.98 -63.66 -35.46L-63.66 -26.34L-68.1 -26.34L-68.1 -18.9Z M-23.58 -8.16C-25.38 -7 -27.12 -6.42 -28.8 -6.42C-31 -6.42 -32.74 -7.16 -34.02 -8.64L-14.82 -14.76C-15.54 -18.84 -17.11 -21.98 -19.53 -24.18C-21.95 -26.38 -25.04 -27.48 -28.8 -27.48C-31.56 -27.48 -34.1 -26.85 -36.42 -25.59C-38.74 -24.33 -40.57 -22.62 -41.91 -20.46C-43.25 -18.3 -43.92 -15.94 -43.92 -13.38C-43.92 -10.62 -43.34 -8.17 -42.18 -6.03C-41.02 -3.89 -39.31 -2.23 -37.05 -1.05C-34.79 0.13 -32.1 0.72 -28.98 0.72C-27.54 0.72 -26.02 0.48 -24.42 0C-22.82 -0.48 -21.3 -1.12 -19.86 -1.92ZM-33.96 -19.02C-32.84 -20.3 -31.34 -20.94 -29.46 -20.94C-26.74 -20.94 -24.96 -19.7 -24.12 -17.22L-35.64 -13.32L-35.64 -13.86C-35.64 -16.02 -35.08 -17.74 -33.96 -19.02Z M17.22 -26.22L7.86 -26.22L2.46 -13.74L-3.66 -26.22L-13.62 -26.22L2.1 0.54L2.34 0.54Z M49.14 -26.22L41.34 -26.22L40.8 -23.52C39.76 -24.8 38.56 -25.79 37.2 -26.49C35.84 -27.19 34 -27.54 31.68 -27.54C29.44 -27.54 27.34 -26.94 25.38 -25.74C23.42 -24.54 21.85 -22.85 20.67 -20.67C19.49 -18.49 18.9 -15.96 18.9 -13.08C18.9 -8.52 20.11 -5.08 22.53 -2.76C24.95 -0.44 28.1 0.72 31.98 0.72C35.3 0.72 38.22 -0.6 40.74 -3.24L40.74 0L49.14 0ZM40.74 -10.08C39.42 -7.44 37.3 -6.12 34.38 -6.12C33.14 -6.12 31.99 -6.44 30.93 -7.08C29.87 -7.72 29.02 -8.61 28.38 -9.75C27.74 -10.89 27.42 -12.14 27.42 -13.5C27.42 -15.58 28.07 -17.3 29.37 -18.66C30.67 -20.02 32.24 -20.7 34.08 -20.7C35.68 -20.7 37.07 -20.32 38.25 -19.56C39.43 -18.8 40.26 -17.78 40.74 -16.5Z M66.18 -47.34L57.78 -47.34L57.78 0L66.18 0Z"></path></g></g></svg>